<svg width="64" height="65" viewBox="0 0 64 65" fill="none" xmlns="http://www.w3.org/2000/svg">
<path d="M37.1896 6.00108C34.1994 3.45292 29.8016 3.45295 26.8117 6.00105L23.2169 9.06441C22.7898 9.42839 22.2588 9.64833 21.6994 9.69297L16.9914 10.0687C13.0753 10.3812 9.96566 13.4909 9.65316 17.4069L9.27747 22.1149C9.23286 22.6742 9.01284 23.2054 8.64886 23.6325L5.5855 27.2272C3.0374 30.2173 3.03742 34.6149 5.58556 37.6048L8.64891 41.1997C9.01284 41.6269 9.23281 42.1579 9.27745 42.7173L9.65321 47.425C9.96572 51.341 13.0754 54.4507 16.9915 54.7632L21.6994 55.1392C22.2588 55.1837 22.7897 55.4037 23.2168 55.7677L26.8114 58.8309C29.8016 61.3789 34.1994 61.3792 37.1896 58.8309L40.7842 55.7677C41.2112 55.4037 41.7421 55.1837 42.3016 55.1389L47.0095 54.7632C50.9255 54.4509 54.0352 51.3413 54.348 47.425L54.7234 42.7173C54.7679 42.1579 54.9882 41.6267 55.352 41.1995L58.4154 37.6051C60.9637 34.6149 60.9637 30.2171 58.4154 27.2272L55.352 23.6324C54.9879 23.2053 54.7682 22.6742 54.7237 22.1149L54.348 17.4069C54.0354 13.4909 50.9255 10.3811 47.0095 10.0687L42.3016 9.69295C41.7421 9.64831 41.2112 9.42839 40.7842 9.06441L37.1896 6.00108ZM39.5424 21.1026L43.3135 24.8739L24.4573 43.7301L20.6861 39.9587L39.5424 21.1026ZM27.2858 27.7021C25.7236 29.2643 23.191 29.2643 21.6289 27.7021C20.0668 26.1403 20.0668 23.6075 21.6289 22.0454C23.191 20.4833 25.7236 20.4833 27.2858 22.0454C28.848 23.6075 28.848 26.1403 27.2858 27.7021ZM36.7138 42.7872C35.1517 41.2251 35.1517 38.6925 36.7138 37.1304C38.276 35.5683 40.8085 35.5683 42.3706 37.1304C43.9328 38.6925 43.9328 41.2251 42.3706 42.7872C40.8085 44.3493 38.276 44.3493 36.7138 42.7872Z" fill="#CBD5E1"/>
</svg>
