<svg width="24" height="25" viewBox="0 0 24 25" fill="none" xmlns="http://www.w3.org/2000/svg">
<path d="M13.0281 2.66211C14.1535 2.66397 14.7238 2.66993 15.2166 2.6846L15.4107 2.69094C15.6349 2.69891 15.8561 2.70891 16.1228 2.72141C17.1869 2.77058 17.9128 2.93891 18.5503 3.18641C19.2094 3.44058 19.7661 3.78391 20.3219 4.33975C20.8769 4.89558 21.2203 5.45391 21.4753 6.11141C21.7219 6.74808 21.8903 7.47475 21.9403 8.53891C21.9522 8.80558 21.9618 9.02678 21.9697 9.25102L21.976 9.44511C21.9906 9.93785 21.9973 10.5082 21.9994 11.6337L22.0002 12.3793C22.0003 12.4704 22.0003 12.5644 22.0003 12.6614L22.0002 12.9435L21.9996 13.6892C21.9977 14.8146 21.9918 15.385 21.9771 15.8777L21.9707 16.0718C21.9628 16.2961 21.9528 16.5173 21.9403 16.7839C21.8911 17.8481 21.7219 18.5739 21.4753 19.2114C21.2211 19.8706 20.8769 20.4273 20.3219 20.9831C19.7661 21.5381 19.2069 21.8814 18.5503 22.1364C17.9128 22.3831 17.1869 22.5514 16.1228 22.6014C15.8561 22.6133 15.6349 22.623 15.4107 22.6308L15.2166 22.6371C14.7238 22.6518 14.1535 22.6584 13.0281 22.6606L12.2824 22.6614C12.1913 22.6614 12.0973 22.6614 12.0003 22.6614H11.7182L10.9725 22.6607C9.8471 22.6589 9.27672 22.6529 8.78397 22.6382L8.58989 22.6319C8.36564 22.6239 8.14444 22.6139 7.87778 22.6014C6.81361 22.5523 6.08861 22.3831 5.45028 22.1364C4.79194 21.8823 4.23444 21.5381 3.67861 20.9831C3.12278 20.4273 2.78028 19.8681 2.52528 19.2114C2.27778 18.5739 2.11028 17.8481 2.06028 16.7839C2.0484 16.5173 2.03871 16.2961 2.03086 16.0718L2.02457 15.8777C2.00994 15.385 2.00327 14.8146 2.00111 13.6892L2.00098 11.6337C2.00284 10.5082 2.00879 9.93785 2.02346 9.44511L2.02981 9.25102C2.03778 9.02678 2.04778 8.80558 2.06028 8.53891C2.10944 7.47391 2.27778 6.74891 2.52528 6.11141C2.77944 5.45308 3.12278 4.89558 3.67861 4.33975C4.23444 3.78391 4.79278 3.44141 5.45028 3.18641C6.08778 2.93891 6.81278 2.77141 7.87778 2.72141C8.14444 2.70954 8.36564 2.69985 8.58989 2.692L8.78397 2.68571C9.27672 2.67107 9.8471 2.6644 10.9725 2.66224L13.0281 2.66211ZM12.0003 7.66141C9.23738 7.66141 7.00028 9.90094 7.00028 12.6614C7.00028 15.4243 9.23981 17.6614 12.0003 17.6614C14.7632 17.6614 17.0003 15.4219 17.0003 12.6614C17.0003 9.89851 14.7607 7.66141 12.0003 7.66141ZM12.0003 9.66141C13.6572 9.66141 15.0003 11.0041 15.0003 12.6614C15.0003 14.3183 13.6576 15.6614 12.0003 15.6614C10.3434 15.6614 9.00028 14.3188 9.00028 12.6614C9.00028 11.0045 10.3429 9.66141 12.0003 9.66141ZM17.2503 6.16141C16.561 6.16141 16.0003 6.72132 16.0003 7.41056C16.0003 8.09981 16.5602 8.66058 17.2503 8.66058C17.9395 8.66058 18.5003 8.10068 18.5003 7.41056C18.5003 6.72132 17.9386 6.16055 17.2503 6.16141Z" fill="#3F3F46"/>
</svg>
