<svg width="188" height="50" viewBox="0 0 188 50" fill="none" xmlns="http://www.w3.org/2000/svg">
<path d="M13.6201 15.6191C13.5234 14.7146 13.116 14.0103 12.3979 13.5062C11.6867 13.0022 10.7614 12.7501 9.6221 12.7501C8.82112 12.7501 8.13408 12.871 7.56096 13.1126C6.98785 13.3543 6.54938 13.6823 6.24556 14.0966C5.94174 14.5109 5.78638 14.9839 5.77947 15.5156C5.77947 15.9575 5.8796 16.3407 6.07984 16.6652C6.28699 16.9898 6.56664 17.266 6.9188 17.4938C7.27095 17.7148 7.66108 17.9012 8.08919 18.0531C8.5173 18.2051 8.94886 18.3328 9.38388 18.4364L11.3725 18.9335C12.1735 19.12 12.9434 19.372 13.6822 19.6896C14.428 20.0073 15.0943 20.4077 15.6812 20.8911C16.2751 21.3744 16.7446 21.9579 17.0898 22.6415C17.4351 23.3251 17.6077 24.1261 17.6077 25.0444C17.6077 26.2873 17.2901 27.3818 16.6548 28.3278C16.0196 29.2668 15.1012 30.0022 13.8997 30.5339C12.7052 31.0587 11.2586 31.3211 9.55996 31.3211C7.90966 31.3211 6.47688 31.0656 5.2616 30.5546C4.05323 30.0437 3.10724 29.2979 2.42365 28.3174C1.74696 27.3369 1.381 26.1423 1.32576 24.7337H5.10624C5.16148 25.4726 5.38934 26.0871 5.78983 26.5774C6.19032 27.0676 6.71165 27.4336 7.35381 27.6752C8.00288 27.9169 8.7279 28.0378 9.52888 28.0378C10.3644 28.0378 11.0963 27.9135 11.7247 27.6649C12.3599 27.4094 12.8571 27.0573 13.2161 26.6084C13.5752 26.1527 13.7582 25.621 13.7651 25.0134C13.7582 24.461 13.5959 24.0052 13.2783 23.6462C12.9607 23.2802 12.5153 22.9764 11.9422 22.7347C11.376 22.4862 10.7131 22.2652 9.95354 22.0719L7.54025 21.4504C5.79328 21.0016 4.41229 20.3214 3.39725 19.41C2.38913 18.4916 1.88506 17.2729 1.88506 15.7538C1.88506 14.504 2.22341 13.4095 2.90009 12.4705C3.58369 11.5314 4.51241 10.8029 5.68626 10.285C6.86011 9.76026 8.18932 9.49787 9.67389 9.49787C11.1792 9.49787 12.498 9.76026 13.6304 10.285C14.7698 10.8029 15.664 11.5245 16.313 12.4498C16.9621 13.3681 17.297 14.4246 17.3177 15.6191H13.6201ZM31.0077 24.3091V15.0909H34.7571V31H31.1216V28.1724H30.9559C30.5969 29.0632 30.0065 29.7916 29.1848 30.3578C28.37 30.924 27.3653 31.2071 26.1708 31.2071C25.1281 31.2071 24.2063 30.9758 23.4053 30.5132C22.6112 30.0437 21.9898 29.3635 21.541 28.4728C21.0921 27.5751 20.8677 26.491 20.8677 25.2205V15.0909H24.6171V24.6405C24.6171 25.6486 24.8933 26.4496 25.4457 27.0434C25.9981 27.6373 26.7232 27.9342 27.6208 27.9342C28.1732 27.9342 28.7083 27.7995 29.2262 27.5302C29.7441 27.2609 30.1688 26.8605 30.5002 26.3288C30.8385 25.7902 31.0077 25.117 31.0077 24.3091ZM38.6127 36.9659V15.0909H42.3V17.7217H42.5175C42.7108 17.335 42.9835 16.9242 43.3357 16.4892C43.6879 16.0472 44.1643 15.6709 44.765 15.3602C45.3658 15.0426 46.1322 14.8838 47.0644 14.8838C48.2935 14.8838 49.4017 15.1979 50.3891 15.8263C51.3835 16.4477 52.1706 17.3696 52.7506 18.5917C53.3376 19.807 53.631 21.2985 53.631 23.0662C53.631 24.8131 53.3445 26.2977 52.7714 27.5199C52.1982 28.7421 51.418 29.6742 50.4306 30.3164C49.4432 30.9586 48.3246 31.2797 47.0747 31.2797C46.1633 31.2797 45.4072 31.1277 44.8065 30.8239C44.2057 30.5201 43.7224 30.1541 43.3564 29.726C42.9974 29.291 42.7177 28.8802 42.5175 28.4935H42.3621V36.9659H38.6127ZM42.2896 23.0455C42.2896 24.0743 42.4346 24.9754 42.7246 25.7488C43.0215 26.5221 43.4462 27.1263 43.9986 27.5613C44.5579 27.9894 45.2346 28.2035 46.0286 28.2035C46.8572 28.2035 47.5512 27.9825 48.1105 27.5406C48.6698 27.0918 49.091 26.4807 49.3741 25.7073C49.6641 24.9271 49.8091 24.0398 49.8091 23.0455C49.8091 22.058 49.6676 21.1811 49.3845 20.4147C49.1014 19.6482 48.6802 19.0475 48.1209 18.6125C47.5616 18.1774 46.8641 17.9599 46.0286 17.9599C45.2277 17.9599 44.5475 18.1705 43.9882 18.5917C43.4289 19.0129 43.0043 19.6033 42.7142 20.3629C42.4311 21.1224 42.2896 22.0166 42.2896 23.0455ZM56.8419 36.9659V15.0909H60.5291V17.7217H60.7466C60.94 17.335 61.2127 16.9242 61.5649 16.4892C61.917 16.0472 62.3935 15.6709 62.9942 15.3602C63.5949 15.0426 64.3614 14.8838 65.2936 14.8838C66.5226 14.8838 67.6309 15.1979 68.6183 15.8263C69.6126 16.4477 70.3998 17.3696 70.9798 18.5917C71.5667 19.807 71.8602 21.2985 71.8602 23.0662C71.8602 24.8131 71.5736 26.2977 71.0005 27.5199C70.4274 28.7421 69.6472 29.6742 68.6597 30.3164C67.6723 30.9586 66.5537 31.2797 65.3039 31.2797C64.3925 31.2797 63.6364 31.1277 63.0356 30.8239C62.4349 30.5201 61.9515 30.1541 61.5856 29.726C61.2265 29.291 60.9469 28.8802 60.7466 28.4935H60.5913V36.9659H56.8419ZM60.5188 23.0455C60.5188 24.0743 60.6638 24.9754 60.9538 25.7488C61.2507 26.5221 61.6753 27.1263 62.2277 27.5613C62.787 27.9894 63.4637 28.2035 64.2578 28.2035C65.0864 28.2035 65.7804 27.9825 66.3397 27.5406C66.899 27.0918 67.3202 26.4807 67.6033 25.7073C67.8933 24.9271 68.0383 24.0398 68.0383 23.0455C68.0383 22.058 67.8967 21.1811 67.6136 20.4147C67.3305 19.6482 66.9093 19.0475 66.35 18.6125C65.7907 18.1774 65.0933 17.9599 64.2578 17.9599C63.4568 17.9599 62.7767 18.1705 62.2174 18.5917C61.6581 19.0129 61.2334 19.6033 60.9434 20.3629C60.6603 21.1224 60.5188 22.0166 60.5188 23.0455ZM78.8204 9.78788V31H75.071V9.78788H78.8204ZM85.0064 36.9659C84.4955 36.9659 84.0225 36.9245 83.5875 36.8416C83.1594 36.7657 82.8176 36.6759 82.5621 36.5723L83.4321 33.6515C83.9776 33.8103 84.4644 33.8863 84.8925 33.8794C85.3206 33.8725 85.6969 33.7378 86.0215 33.4754C86.3529 33.22 86.6326 32.7918 86.8604 32.1911L87.1815 31.3314L81.4124 15.0909H85.3897L89.0562 27.1056H89.2219L92.8988 15.0909H96.8865L90.5166 32.9265C90.2197 33.7689 89.8261 34.4905 89.3359 35.0912C88.8456 35.6988 88.2449 36.1615 87.5337 36.4791C86.8294 36.8036 85.9869 36.9659 85.0064 36.9659ZM125.038 16.9449H121.164C121.054 16.3096 120.85 15.7469 120.553 15.2566C120.256 14.7595 119.887 14.3383 119.445 13.993C119.003 13.6478 118.499 13.3888 117.933 13.2162C117.374 13.0367 116.769 12.9469 116.12 12.9469C114.967 12.9469 113.945 13.2369 113.054 13.8169C112.164 14.3901 111.466 15.2325 110.962 16.3442C110.458 17.449 110.206 18.7989 110.206 20.3939C110.206 22.0166 110.458 23.3838 110.962 24.4955C111.473 25.6003 112.171 26.4358 113.054 27.002C113.945 27.5613 114.964 27.841 116.11 27.841C116.745 27.841 117.339 27.7581 117.891 27.5924C118.451 27.4198 118.951 27.1677 119.393 26.8363C119.842 26.5049 120.218 26.0975 120.522 25.6141C120.833 25.1308 121.047 24.5784 121.164 23.9569L125.038 23.9776C124.893 24.9858 124.579 25.9317 124.096 26.8156C123.619 27.6994 122.994 28.4797 122.221 29.1564C121.448 29.8262 120.543 30.3509 119.507 30.7307C118.471 31.1036 117.322 31.29 116.058 31.29C114.194 31.29 112.53 30.8584 111.066 29.9953C109.602 29.1322 108.449 27.8859 107.606 26.2563C106.764 24.6267 106.343 22.6726 106.343 20.3939C106.343 18.1084 106.768 16.1543 107.617 14.5316C108.466 12.902 109.623 11.6557 111.087 10.7926C112.55 9.92943 114.208 9.49787 116.058 9.49787C117.239 9.49787 118.337 9.66359 119.352 9.99503C120.367 10.3265 121.271 10.8133 122.066 11.4554C122.86 12.0907 123.512 12.871 124.023 13.7962C124.541 14.7146 124.879 15.7641 125.038 16.9449ZM132.141 21.6783V31H128.391V9.78788H132.058V17.7942H132.244C132.617 16.8966 133.194 16.1888 133.974 15.6709C134.761 15.1461 135.762 14.8838 136.978 14.8838C138.082 14.8838 139.046 15.1151 139.867 15.5777C140.689 16.0403 141.324 16.717 141.773 17.6078C142.229 18.4985 142.457 19.5861 142.457 20.8704V31H138.707V21.4504C138.707 20.3801 138.431 19.5481 137.879 18.9542C137.333 18.3535 136.567 18.0531 135.579 18.0531C134.917 18.0531 134.323 18.1982 133.798 18.4882C133.28 18.7713 132.873 19.1821 132.576 19.7207C132.286 20.2593 132.141 20.9118 132.141 21.6783ZM150.857 31.3211C149.849 31.3211 148.941 31.1416 148.133 30.7825C147.332 30.4165 146.696 29.8779 146.227 29.1667C145.764 28.4555 145.533 27.5786 145.533 26.5359C145.533 25.6383 145.699 24.896 146.03 24.3091C146.362 23.7221 146.814 23.2526 147.387 22.9004C147.96 22.5483 148.606 22.2825 149.324 22.1029C150.049 21.9165 150.798 21.7818 151.571 21.699C152.504 21.6023 153.26 21.516 153.84 21.44C154.42 21.3572 154.841 21.2329 155.103 21.0672C155.373 20.8946 155.507 20.6287 155.507 20.2696V20.2075C155.507 19.4272 155.276 18.8231 154.813 18.3949C154.351 17.9668 153.684 17.7528 152.814 17.7528C151.896 17.7528 151.167 17.953 150.629 18.3535C150.097 18.754 149.738 19.227 149.552 19.7725L146.051 19.2753C146.327 18.3086 146.783 17.5007 147.418 16.8517C148.053 16.1957 148.83 15.7055 149.748 15.3809C150.667 15.0495 151.682 14.8838 152.794 14.8838C153.56 14.8838 154.323 14.9735 155.083 15.1531C155.842 15.3326 156.536 15.6295 157.164 16.0438C157.793 16.4512 158.297 17.007 158.677 17.7114C159.063 18.4157 159.257 19.296 159.257 20.3525V31H155.652V28.8146H155.528C155.3 29.2565 154.979 29.6708 154.565 30.0575C154.157 30.4372 153.643 30.7445 153.021 30.9793C152.407 31.2071 151.685 31.3211 150.857 31.3211ZM151.83 28.566C152.583 28.566 153.235 28.4175 153.788 28.1206C154.34 27.8168 154.765 27.4163 155.062 26.9192C155.366 26.422 155.518 25.88 155.518 25.293V23.4183C155.4 23.515 155.2 23.6048 154.917 23.6876C154.641 23.7705 154.33 23.843 153.985 23.9051C153.639 23.9673 153.298 24.0225 152.959 24.0708C152.621 24.1192 152.327 24.1606 152.079 24.1951C151.52 24.2711 151.019 24.3954 150.577 24.568C150.135 24.7406 149.786 24.9823 149.531 25.293C149.275 25.5968 149.148 25.9904 149.148 26.4738C149.148 27.1643 149.4 27.6856 149.904 28.0378C150.408 28.3899 151.05 28.566 151.83 28.566ZM163.027 31V15.0909H166.776V31H163.027ZM164.912 12.833C164.318 12.833 163.807 12.6362 163.379 12.2426C162.951 11.8421 162.737 11.3622 162.737 10.8029C162.737 10.2367 162.951 9.75681 163.379 9.36322C163.807 8.96273 164.318 8.76249 164.912 8.76249C165.513 8.76249 166.024 8.96273 166.445 9.36322C166.873 9.75681 167.087 10.2367 167.087 10.8029C167.087 11.3622 166.873 11.8421 166.445 12.2426C166.024 12.6362 165.513 12.833 164.912 12.833ZM174.381 21.6783V31H170.632V15.0909H174.215V17.7942H174.402C174.768 16.9035 175.351 16.1957 176.152 15.6709C176.96 15.1461 177.958 14.8838 179.146 14.8838C180.243 14.8838 181.2 15.1185 182.015 15.5881C182.836 16.0576 183.472 16.7377 183.92 17.6285C184.376 18.5192 184.601 19.5999 184.594 20.8704V31H180.844V21.4504C180.844 20.387 180.568 19.555 180.016 18.9542C179.47 18.3535 178.714 18.0531 177.747 18.0531C177.091 18.0531 176.508 18.1982 175.997 18.4882C175.493 18.7713 175.096 19.1821 174.806 19.7207C174.523 20.2593 174.381 20.9118 174.381 21.6783Z" fill="white"/>
<path d="M147.599 41.0856C147.569 40.8141 147.442 40.6038 147.221 40.4546C146.999 40.3036 146.72 40.228 146.383 40.228C146.142 40.228 145.934 40.2663 145.758 40.3428C145.582 40.4174 145.445 40.5206 145.348 40.6525C145.252 40.7826 145.204 40.9308 145.204 41.0971C145.204 41.2367 145.237 41.3572 145.302 41.4585C145.369 41.5599 145.456 41.645 145.563 41.7138C145.672 41.7807 145.788 41.8371 145.913 41.883C146.037 41.927 146.156 41.9633 146.271 41.992L146.845 42.1412C147.032 42.187 147.224 42.2492 147.421 42.3276C147.618 42.406 147.801 42.5092 147.969 42.6374C148.137 42.7655 148.273 42.9242 148.376 43.1135C148.482 43.3028 148.534 43.5294 148.534 43.7933C148.534 44.126 148.448 44.4214 148.276 44.6795C148.106 44.9377 147.858 45.1413 147.533 45.2905C147.21 45.4396 146.819 45.5142 146.36 45.5142C145.92 45.5142 145.54 45.4444 145.219 45.3048C144.897 45.1652 144.646 44.9673 144.464 44.7111C144.283 44.4529 144.182 44.147 144.163 43.7933H145.052C145.069 44.0055 145.138 44.1824 145.259 44.3239C145.381 44.4635 145.537 44.5677 145.726 44.6365C145.917 44.7034 146.127 44.7369 146.354 44.7369C146.605 44.7369 146.828 44.6977 147.023 44.6193C147.22 44.539 147.374 44.4281 147.487 44.2866C147.6 44.1432 147.657 43.9759 147.657 43.7846C147.657 43.6106 147.607 43.4682 147.507 43.3573C147.41 43.2464 147.277 43.1546 147.109 43.0819C146.942 43.0093 146.754 42.9452 146.544 42.8898L145.85 42.7005C145.379 42.5723 145.006 42.384 144.731 42.1354C144.457 41.8868 144.321 41.5579 144.321 41.1487C144.321 40.8103 144.413 40.5149 144.596 40.2625C144.78 40.0101 145.028 39.8141 145.342 39.6745C145.655 39.533 146.009 39.4622 146.403 39.4622C146.801 39.4622 147.152 39.532 147.456 39.6716C147.762 39.8112 148.003 40.0034 148.179 40.2481C148.354 40.491 148.446 40.7701 148.454 41.0856H147.599ZM150.807 45.5142C150.527 45.5142 150.275 45.4626 150.049 45.3593C149.824 45.2541 149.645 45.1021 149.513 44.9033C149.383 44.7044 149.318 44.4606 149.318 44.1719C149.318 43.9233 149.366 43.7187 149.461 43.5581C149.557 43.3974 149.686 43.2703 149.849 43.1766C150.011 43.0829 150.193 43.0121 150.394 42.9643C150.594 42.9165 150.799 42.8802 151.007 42.8553C151.271 42.8247 151.485 42.7999 151.65 42.7808C151.814 42.7597 151.934 42.7263 152.008 42.6804C152.083 42.6345 152.12 42.5599 152.12 42.4567V42.4366C152.12 42.1861 152.049 41.992 151.908 41.8543C151.768 41.7167 151.56 41.6478 151.283 41.6478C150.994 41.6478 150.766 41.7119 150.6 41.84C150.436 41.9662 150.322 42.1067 150.259 42.2616L149.453 42.0781C149.548 41.8104 149.688 41.5943 149.872 41.4298C150.057 41.2635 150.27 41.143 150.511 41.0684C150.752 40.992 151.005 40.9537 151.271 40.9537C151.447 40.9537 151.634 40.9747 151.831 41.0168C152.029 41.057 152.215 41.1315 152.387 41.2405C152.561 41.3495 152.703 41.5054 152.814 41.7081C152.925 41.9088 152.981 42.1698 152.981 42.4911V45.4167H152.143V44.8143H152.109C152.053 44.9252 151.97 45.0342 151.859 45.1413C151.748 45.2484 151.606 45.3373 151.432 45.4081C151.258 45.4788 151.049 45.5142 150.807 45.5142ZM150.993 44.8258C151.23 44.8258 151.433 44.779 151.601 44.6853C151.771 44.5916 151.9 44.4692 151.988 44.3181C152.078 44.1652 152.123 44.0017 152.123 43.8277V43.2598C152.092 43.2904 152.033 43.319 151.945 43.3458C151.859 43.3707 151.761 43.3927 151.65 43.4118C151.539 43.429 151.431 43.4452 151.326 43.4605C151.221 43.4739 151.133 43.4854 151.062 43.495C150.895 43.516 150.743 43.5514 150.606 43.6011C150.47 43.6508 150.361 43.7225 150.279 43.8162C150.198 43.908 150.158 44.0304 150.158 44.1833C150.158 44.3956 150.237 44.5562 150.394 44.6652C150.55 44.7723 150.75 44.8258 150.993 44.8258ZM154.981 39.5425V45.4167H154.123V39.5425H154.981ZM157.416 45.5142C157.137 45.5142 156.885 45.4626 156.659 45.3593C156.434 45.2541 156.255 45.1021 156.123 44.9033C155.993 44.7044 155.928 44.4606 155.928 44.1719C155.928 43.9233 155.976 43.7187 156.071 43.5581C156.167 43.3974 156.296 43.2703 156.458 43.1766C156.621 43.0829 156.803 43.0121 157.003 42.9643C157.204 42.9165 157.409 42.8802 157.617 42.8553C157.881 42.8247 158.095 42.7999 158.26 42.7808C158.424 42.7597 158.544 42.7263 158.618 42.6804C158.693 42.6345 158.73 42.5599 158.73 42.4567V42.4366C158.73 42.1861 158.659 41.992 158.518 41.8543C158.378 41.7167 158.17 41.6478 157.893 41.6478C157.604 41.6478 157.376 41.7119 157.21 41.84C157.045 41.9662 156.932 42.1067 156.869 42.2616L156.063 42.0781C156.158 41.8104 156.298 41.5943 156.481 41.4298C156.667 41.2635 156.88 41.143 157.121 41.0684C157.362 40.992 157.615 40.9537 157.881 40.9537C158.057 40.9537 158.243 40.9747 158.44 41.0168C158.639 41.057 158.825 41.1315 158.997 41.2405C159.171 41.3495 159.313 41.5054 159.424 41.7081C159.535 41.9088 159.59 42.1698 159.59 42.4911V45.4167H158.753V44.8143H158.719C158.663 44.9252 158.58 45.0342 158.469 45.1413C158.358 45.2484 158.216 45.3373 158.042 45.4081C157.868 45.4788 157.659 45.5142 157.416 45.5142ZM157.603 44.8258C157.84 44.8258 158.043 44.779 158.211 44.6853C158.381 44.5916 158.51 44.4692 158.598 44.3181C158.688 44.1652 158.733 44.0017 158.733 43.8277V43.2598C158.702 43.2904 158.643 43.319 158.555 43.3458C158.469 43.3707 158.371 43.3927 158.26 43.4118C158.149 43.429 158.041 43.4452 157.936 43.4605C157.83 43.4739 157.742 43.4854 157.672 43.495C157.505 43.516 157.353 43.5514 157.216 43.6011C157.08 43.6508 156.971 43.7225 156.889 43.8162C156.808 43.908 156.768 44.0304 156.768 44.1833C156.768 44.3956 156.847 44.5562 157.003 44.6652C157.16 44.7723 157.36 44.8258 157.603 44.8258ZM160.733 45.4167V41.0111H161.556V41.7281H161.61C161.702 41.4853 161.852 41.296 162.061 41.1602C162.269 41.0225 162.519 40.9537 162.809 40.9537C163.104 40.9537 163.35 41.0225 163.549 41.1602C163.75 41.2979 163.898 41.4872 163.994 41.7281H164.04C164.145 41.4929 164.312 41.3055 164.542 41.166C164.771 41.0245 165.045 40.9537 165.362 40.9537C165.762 40.9537 166.088 41.079 166.34 41.3294C166.594 41.5799 166.722 41.9576 166.722 42.4624V45.4167H165.864V42.5427C165.864 42.2444 165.783 42.0283 165.62 41.8945C165.458 41.7606 165.264 41.6937 165.038 41.6937C164.759 41.6937 164.542 41.7798 164.387 41.9519C164.232 42.122 164.155 42.341 164.155 42.6087V45.4167H163.3V42.4882C163.3 42.2492 163.225 42.057 163.076 41.9117C162.927 41.7664 162.733 41.6937 162.494 41.6937C162.331 41.6937 162.181 41.7367 162.044 41.8228C161.908 41.9069 161.798 42.0245 161.714 42.1756C161.631 42.3266 161.59 42.5016 161.59 42.7005V45.4167H160.733ZM167.94 45.4167V39.5425H168.826V42.0953H171.755V39.5425H172.644V45.4167H171.755V42.8553H168.826V45.4167H167.94ZM175.148 45.5142C174.869 45.5142 174.616 45.4626 174.391 45.3593C174.165 45.2541 173.986 45.1021 173.854 44.9033C173.724 44.7044 173.659 44.4606 173.659 44.1719C173.659 43.9233 173.707 43.7187 173.803 43.5581C173.898 43.3974 174.027 43.2703 174.19 43.1766C174.352 43.0829 174.534 43.0121 174.735 42.9643C174.935 42.9165 175.14 42.8802 175.349 42.8553C175.612 42.8247 175.827 42.7999 175.991 42.7808C176.155 42.7597 176.275 42.7263 176.35 42.6804C176.424 42.6345 176.461 42.5599 176.461 42.4567V42.4366C176.461 42.1861 176.391 41.992 176.249 41.8543C176.11 41.7167 175.901 41.6478 175.624 41.6478C175.335 41.6478 175.108 41.7119 174.941 41.84C174.777 41.9662 174.663 42.1067 174.6 42.2616L173.794 42.0781C173.89 41.8104 174.029 41.5943 174.213 41.4298C174.398 41.2635 174.611 41.143 174.852 41.0684C175.093 40.992 175.347 40.9537 175.612 40.9537C175.788 40.9537 175.975 40.9747 176.172 41.0168C176.371 41.057 176.556 41.1315 176.728 41.2405C176.902 41.3495 177.045 41.5054 177.156 41.7081C177.266 41.9088 177.322 42.1698 177.322 42.4911V45.4167H176.484V44.8143H176.45C176.394 44.9252 176.311 45.0342 176.2 45.1413C176.089 45.2484 175.947 45.3373 175.773 45.4081C175.599 45.4788 175.391 45.5142 175.148 45.5142ZM175.334 44.8258C175.571 44.8258 175.774 44.779 175.942 44.6853C176.112 44.5916 176.241 44.4692 176.329 44.3181C176.419 44.1652 176.464 44.0017 176.464 43.8277V43.2598C176.434 43.2904 176.374 43.319 176.286 43.3458C176.2 43.3707 176.102 43.3927 175.991 43.4118C175.88 43.429 175.772 43.4452 175.667 43.4605C175.562 43.4739 175.474 43.4854 175.403 43.495C175.237 43.516 175.085 43.5514 174.947 43.6011C174.811 43.6508 174.702 43.7225 174.62 43.8162C174.54 43.908 174.5 44.0304 174.5 44.1833C174.5 44.3956 174.578 44.5562 174.735 44.6652C174.892 44.7723 175.091 44.8258 175.334 44.8258ZM180.32 45.5056C179.893 45.5056 179.526 45.409 179.218 45.2159C178.913 45.0209 178.677 44.7522 178.513 44.4099C178.348 44.0676 178.266 43.6757 178.266 43.2339C178.266 42.7865 178.35 42.3916 178.519 42.0494C178.687 41.7052 178.924 41.4365 179.23 41.2434C179.536 41.0503 179.896 40.9537 180.311 40.9537C180.646 40.9537 180.944 41.0159 181.206 41.1401C181.468 41.2625 181.679 41.4346 181.84 41.6564C182.003 41.8782 182.099 42.1373 182.13 42.4337H181.295C181.249 42.2272 181.144 42.0494 180.98 41.9002C180.817 41.7511 180.599 41.6765 180.326 41.6765C180.087 41.6765 179.877 41.7396 179.697 41.8658C179.52 41.9901 179.381 42.1679 179.282 42.3993C179.182 42.6288 179.132 42.9003 179.132 43.2139C179.132 43.5351 179.181 43.8124 179.279 44.0457C179.376 44.2789 179.514 44.4596 179.692 44.5878C179.871 44.7159 180.083 44.7799 180.326 44.7799C180.488 44.7799 180.635 44.7503 180.767 44.691C180.901 44.6298 181.013 44.5428 181.103 44.43C181.195 44.3172 181.259 44.1814 181.295 44.0227H182.13C182.099 44.3076 182.006 44.5619 181.852 44.7857C181.697 45.0094 181.489 45.1853 181.229 45.3134C180.971 45.4415 180.668 45.5056 180.32 45.5056ZM183.836 43.9223L183.83 42.8754H183.979L185.734 41.0111H186.761L184.759 43.1336H184.624L183.836 43.9223ZM183.047 45.4167V39.5425H183.904V45.4167H183.047ZM185.829 45.4167L184.251 43.3229L184.842 42.7234L186.882 45.4167H185.829Z" fill="white"/>
</svg>
