<svg width="64" height="65" viewBox="0 0 64 65" fill="none" xmlns="http://www.w3.org/2000/svg">
<path d="M17.2122 51.0835L5.33337 60.4169V11.0835C5.33337 9.61079 6.52729 8.41687 8.00004 8.41687H56C57.4728 8.41687 58.6667 9.61079 58.6667 11.0835V48.4169C58.6667 49.8897 57.4728 51.0835 56 51.0835H17.2122ZM29.3334 37.7502V43.0835H34.6667V37.7502H29.3334ZM22.8462 23.9194L28.0768 24.9656C28.4416 23.1321 30.0595 21.7502 32 21.7502C34.2091 21.7502 36 23.5411 36 25.7502C36 27.9593 34.2091 29.7502 32 29.7502H29.3334V35.0835H32C37.1547 35.0835 41.3334 30.9049 41.3334 25.7502C41.3334 20.5955 37.1547 16.4169 32 16.4169C27.472 16.4169 23.697 19.6414 22.8462 23.9194Z" fill="#CBD5E1"/>
</svg>
