<svg width="64" height="65" viewBox="0 0 64 65" fill="none" xmlns="http://www.w3.org/2000/svg">
<path d="M29.3464 5.75012L48.8085 11.832C49.9216 12.1799 50.6797 13.2109 50.6797 14.3773V19.0835H56.0131C57.4859 19.0835 58.6797 20.2774 58.6797 21.7501V27.0835H24.013V21.7501C24.013 20.2774 25.2069 19.0835 26.6797 19.0835H45.3464V16.3368L29.3464 11.3341L13.3463 16.3368V36.0819C13.3463 39.4016 14.8908 42.5192 17.5021 44.5309L18.0041 44.8949L29.3464 52.6275L39.4317 45.7501H26.6797C25.2069 45.7501 24.013 44.5563 24.013 43.0835V32.4168H58.6797V43.0835C58.6797 44.5563 57.4859 45.7501 56.0131 45.7501L47.4261 45.7531C46.3952 47.1123 45.1403 48.3149 43.6931 49.3016L29.3464 59.0835L14.9996 49.3016C10.6283 46.3211 8.01302 41.3725 8.01302 36.0819V14.3773C8.01302 13.2109 8.77102 12.1799 9.8843 11.832L29.3464 5.75012Z" fill="#CBD5E1"/>
</svg>
